# SK Shipping Office 3D Model (SketchUp Ready)
mtllib sk_shipping_office.mtl

v 0.0000 0.0000 -0.1500
v 25.0200 0.0000 -0.1500
v 25.0200 10.3000 -0.1500
v 0.0000 10.3000 -0.1500
v 0.0000 0.0000 0.0000
v 25.0200 0.0000 0.0000
v 25.0200 10.3000 0.0000
v 0.0000 10.3000 0.0000
v 6.3050 0.0000 0.0010
v 14.8150 0.0000 0.0010
v 14.8150 3.5000 0.0010
v 6.3050 3.5000 0.0010
v 6.3050 0.0000 0.0110
v 14.8150 0.0000 0.0110
v 14.8150 3.5000 0.0110
v 6.3050 3.5000 0.0110
v 0.0000 10.1000 0.0000
v 25.0200 10.1000 0.0000
v 25.0200 10.3000 0.0000
v 0.0000 10.3000 0.0000
v 0.0000 10.1000 2.7000
v 25.0200 10.1000 2.7000
v 25.0200 10.3000 2.7000
v 0.0000 10.3000 2.7000
v 0.0000 0.0000 0.0000
v 0.2000 0.0000 0.0000
v 0.2000 10.3000 0.0000
v 0.0000 10.3000 0.0000
v 0.0000 0.0000 2.7000
v 0.2000 0.0000 2.7000
v 0.2000 10.3000 2.7000
v 0.0000 10.3000 2.7000
v 24.8200 0.0000 0.0000
v 25.0200 0.0000 0.0000
v 25.0200 10.3000 0.0000
v 24.8200 10.3000 0.0000
v 24.8200 0.0000 2.7000
v 25.0200 0.0000 2.7000
v 25.0200 10.3000 2.7000
v 24.8200 10.3000 2.7000
v 0.0000 0.0000 0.0000
v 1.8000 0.0000 0.0000
v 1.8000 0.2000 0.0000
v 0.0000 0.2000 0.0000
v 0.0000 0.0000 2.7000
v 1.8000 0.0000 2.7000
v 1.8000 0.2000 2.7000
v 0.0000 0.2000 2.7000
v 3.6000 0.0000 0.0000
v 25.0200 0.0000 0.0000
v 25.0200 0.2000 0.0000
v 3.6000 0.2000 0.0000
v 3.6000 0.0000 2.7000
v 25.0200 0.0000 2.7000
v 25.0200 0.2000 2.7000
v 3.6000 0.2000 2.7000
v 1.8000 0.0000 2.1000
v 3.6000 0.0000 2.1000
v 3.6000 0.2000 2.1000
v 1.8000 0.2000 2.1000
v 1.8000 0.0000 2.7000
v 3.6000 0.0000 2.7000
v 3.6000 0.2000 2.7000
v 1.8000 0.2000 2.7000
v 1.8000 0.0800 0.0000
v 3.6000 0.0800 0.0000
v 3.6000 0.1200 0.0000
v 1.8000 0.1200 0.0000
v 1.8000 0.0800 2.1000
v 3.6000 0.0800 2.1000
v 3.6000 0.1200 2.1000
v 1.8000 0.1200 2.1000
v 6.3050 0.0000 0.0000
v 6.4050 0.0000 0.0000
v 6.4050 1.5000 0.0000
v 6.3050 1.5000 0.0000
v 6.3050 0.0000 2.7000
v 6.4050 0.0000 2.7000
v 6.4050 1.5000 2.7000
v 6.3050 1.5000 2.7000
v 6.3050 2.4000 0.0000
v 6.4050 2.4000 0.0000
v 6.4050 10.3000 0.0000
v 6.3050 10.3000 0.0000
v 6.3050 2.4000 2.7000
v 6.4050 2.4000 2.7000
v 6.4050 10.3000 2.7000
v 6.3050 10.3000 2.7000
v 6.3050 1.5000 2.1000
v 6.4050 1.5000 2.1000
v 6.4050 2.4000 2.1000
v 6.3050 2.4000 2.1000
v 6.3050 1.5000 2.7000
v 6.4050 1.5000 2.7000
v 6.4050 2.4000 2.7000
v 6.3050 2.4000 2.7000
v 6.3050 6.5800 0.0000
v 9.0600 6.5800 0.0000
v 9.0600 6.6300 0.0000
v 6.3050 6.6300 0.0000
v 6.3050 6.5800 0.0500
v 9.0600 6.5800 0.0500
v 9.0600 6.6300 0.0500
v 6.3050 6.6300 0.0500
v 6.3050 6.6000 0.0500
v 9.0600 6.6000 0.0500
v 9.0600 6.6150 0.0500
v 6.3050 6.6150 0.0500
v 6.3050 6.6000 2.6500
v 9.0600 6.6000 2.6500
v 9.0600 6.6150 2.6500
v 6.3050 6.6150 2.6500
v 6.3050 6.5800 2.6500
v 9.0600 6.5800 2.6500
v 9.0600 6.6300 2.6500
v 6.3050 6.6300 2.6500
v 6.3050 6.5800 2.7000
v 9.0600 6.5800 2.7000
v 9.0600 6.6300 2.7000
v 6.3050 6.6300 2.7000
v 9.0600 6.5800 2.1000
v 9.9600 6.5800 2.1000
v 9.9600 6.6800 2.1000
v 9.0600 6.6800 2.1000
v 9.0600 6.5800 2.7000
v 9.9600 6.5800 2.7000
v 9.9600 6.6800 2.7000
v 9.0600 6.6800 2.7000
v 9.9600 6.5800 0.0000
v 12.7150 6.5800 0.0000
v 12.7150 6.6300 0.0000
v 9.9600 6.6300 0.0000
v 9.9600 6.5800 0.0500
v 12.7150 6.5800 0.0500
v 12.7150 6.6300 0.0500
v 9.9600 6.6300 0.0500
v 9.9600 6.6000 0.0500
v 12.7150 6.6000 0.0500
v 12.7150 6.6150 0.0500
v 9.9600 6.6150 0.0500
v 9.9600 6.6000 2.6500
v 12.7150 6.6000 2.6500
v 12.7150 6.6150 2.6500
v 9.9600 6.6150 2.6500
v 9.9600 6.5800 2.6500
v 12.7150 6.5800 2.6500
v 12.7150 6.6300 2.6500
v 9.9600 6.6300 2.6500
v 9.9600 6.5800 2.7000
v 12.7150 6.5800 2.7000
v 12.7150 6.6300 2.7000
v 9.9600 6.6300 2.7000
v 12.7150 6.5800 2.1000
v 13.6150 6.5800 2.1000
v 13.6150 6.6800 2.1000
v 12.7150 6.6800 2.1000
v 12.7150 6.5800 2.7000
v 13.6150 6.5800 2.7000
v 13.6150 6.6800 2.7000
v 12.7150 6.6800 2.7000
v 13.6150 6.5800 0.0000
v 14.8150 6.5800 0.0000
v 14.8150 6.6800 0.0000
v 13.6150 6.6800 0.0000
v 13.6150 6.5800 2.7000
v 14.8150 6.5800 2.7000
v 14.8150 6.6800 2.7000
v 13.6150 6.6800 2.7000
v 15.7150 6.5800 0.0000
v 18.4700 6.5800 0.0000
v 18.4700 6.6800 0.0000
v 15.7150 6.6800 0.0000
v 15.7150 6.5800 2.7000
v 18.4700 6.5800 2.7000
v 18.4700 6.6800 2.7000
v 15.7150 6.6800 2.7000
v 14.8150 6.5800 2.1000
v 15.7150 6.5800 2.1000
v 15.7150 6.6800 2.1000
v 14.8150 6.6800 2.1000
v 14.8150 6.5800 2.7000
v 15.7150 6.5800 2.7000
v 15.7150 6.6800 2.7000
v 14.8150 6.6800 2.7000
v 19.3700 6.5800 0.0000
v 22.1250 6.5800 0.0000
v 22.1250 6.6800 0.0000
v 19.3700 6.6800 0.0000
v 19.3700 6.5800 2.7000
v 22.1250 6.5800 2.7000
v 22.1250 6.6800 2.7000
v 19.3700 6.6800 2.7000
v 18.4700 6.5800 2.1000
v 19.3700 6.5800 2.1000
v 19.3700 6.6800 2.1000
v 18.4700 6.6800 2.1000
v 18.4700 6.5800 2.7000
v 19.3700 6.5800 2.7000
v 19.3700 6.6800 2.7000
v 18.4700 6.6800 2.7000
v 22.9250 6.5800 0.0000
v 25.0200 6.5800 0.0000
v 25.0200 6.6800 0.0000
v 22.9250 6.6800 0.0000
v 22.9250 6.5800 2.7000
v 25.0200 6.5800 2.7000
v 25.0200 6.6800 2.7000
v 22.9250 6.6800 2.7000
v 22.1250 6.5800 2.1000
v 22.9250 6.5800 2.1000
v 22.9250 6.6800 2.1000
v 22.1250 6.6800 2.1000
v 22.1250 6.5800 2.7000
v 22.9250 6.5800 2.7000
v 22.9250 6.6800 2.7000
v 22.1250 6.6800 2.7000
v 9.9600 6.5800 0.0000
v 10.0600 6.5800 0.0000
v 10.0600 10.3000 0.0000
v 9.9600 10.3000 0.0000
v 9.9600 6.5800 2.7000
v 10.0600 6.5800 2.7000
v 10.0600 10.3000 2.7000
v 9.9600 10.3000 2.7000
v 13.6150 6.5800 0.0000
v 13.7150 6.5800 0.0000
v 13.7150 10.3000 0.0000
v 13.6150 10.3000 0.0000
v 13.6150 6.5800 2.7000
v 13.7150 6.5800 2.7000
v 13.7150 10.3000 2.7000
v 13.6150 10.3000 2.7000
v 14.8150 6.5800 0.0000
v 14.9150 6.5800 0.0000
v 14.9150 10.3000 0.0000
v 14.8150 10.3000 0.0000
v 14.8150 6.5800 2.7000
v 14.9150 6.5800 2.7000
v 14.9150 10.3000 2.7000
v 14.8150 10.3000 2.7000
v 18.4700 6.5800 0.0000
v 18.5700 6.5800 0.0000
v 18.5700 10.3000 0.0000
v 18.4700 10.3000 0.0000
v 18.4700 6.5800 2.7000
v 18.5700 6.5800 2.7000
v 18.5700 10.3000 2.7000
v 18.4700 10.3000 2.7000
v 22.1250 6.5800 0.0000
v 22.2250 6.5800 0.0000
v 22.2250 10.3000 0.0000
v 22.1250 10.3000 0.0000
v 22.1250 6.5800 2.7000
v 22.2250 6.5800 2.7000
v 22.2250 10.3000 2.7000
v 22.1250 10.3000 2.7000
v 7.1320 7.9400 0.0000
v 9.1320 7.9400 0.0000
v 9.1320 8.9400 0.0000
v 7.1320 8.9400 0.0000
v 7.1320 7.9400 0.7400
v 9.1320 7.9400 0.7400
v 9.1320 8.9400 0.7400
v 7.1320 8.9400 0.7400
v 10.7870 7.9400 0.0000
v 12.7870 7.9400 0.0000
v 12.7870 8.9400 0.0000
v 10.7870 8.9400 0.0000
v 10.7870 7.9400 0.7400
v 12.7870 7.9400 0.7400
v 12.7870 8.9400 0.7400
v 10.7870 8.9400 0.7400
v 15.8150 8.3800 0.0000
v 17.6150 8.3800 0.0000
v 17.6150 9.2800 0.0000
v 15.8150 9.2800 0.0000
v 15.8150 8.3800 0.7500
v 17.6150 8.3800 0.7500
v 17.6150 9.2800 0.7500
v 15.8150 9.2800 0.7500
v 19.4700 8.3800 0.0000
v 21.2700 8.3800 0.0000
v 21.2700 9.2800 0.0000
v 19.4700 9.2800 0.0000
v 19.4700 8.3800 0.7500
v 21.2700 8.3800 0.7500
v 21.2700 9.2800 0.7500
v 19.4700 9.2800 0.7500
v 14.8000 1.8000 0.0000
v 16.4000 1.8000 0.0000
v 16.4000 2.6000 0.0000
v 14.8000 2.6000 0.0000
v 14.8000 1.8000 0.7200
v 16.4000 1.8000 0.7200
v 16.4000 2.6000 0.7200
v 14.8000 2.6000 0.7200
v 14.8000 2.6000 0.0000
v 16.4000 2.6000 0.0000
v 16.4000 3.4000 0.0000
v 14.8000 3.4000 0.0000
v 14.8000 2.6000 0.7200
v 16.4000 2.6000 0.7200
v 16.4000 3.4000 0.7200
v 14.8000 3.4000 0.7200
v 14.8000 3.6000 0.0000
v 16.4000 3.6000 0.0000
v 16.4000 4.4000 0.0000
v 14.8000 4.4000 0.0000
v 14.8000 3.6000 0.7200
v 16.4000 3.6000 0.7200
v 16.4000 4.4000 0.7200
v 14.8000 4.4000 0.7200
v 14.8000 4.4000 0.0000
v 16.4000 4.4000 0.0000
v 16.4000 5.2000 0.0000
v 14.8000 5.2000 0.0000
v 14.8000 4.4000 0.7200
v 16.4000 4.4000 0.7200
v 16.4000 5.2000 0.7200
v 14.8000 5.2000 0.7200
v 17.2000 1.8000 0.0000
v 18.8000 1.8000 0.0000
v 18.8000 2.6000 0.0000
v 17.2000 2.6000 0.0000
v 17.2000 1.8000 0.7200
v 18.8000 1.8000 0.7200
v 18.8000 2.6000 0.7200
v 17.2000 2.6000 0.7200
v 17.2000 2.6000 0.0000
v 18.8000 2.6000 0.0000
v 18.8000 3.4000 0.0000
v 17.2000 3.4000 0.0000
v 17.2000 2.6000 0.7200
v 18.8000 2.6000 0.7200
v 18.8000 3.4000 0.7200
v 17.2000 3.4000 0.7200
v 17.2000 3.6000 0.0000
v 18.8000 3.6000 0.0000
v 18.8000 4.4000 0.0000
v 17.2000 4.4000 0.0000
v 17.2000 3.6000 0.7200
v 18.8000 3.6000 0.7200
v 18.8000 4.4000 0.7200
v 17.2000 4.4000 0.7200
v 17.2000 4.4000 0.0000
v 18.8000 4.4000 0.0000
v 18.8000 5.2000 0.0000
v 17.2000 5.2000 0.0000
v 17.2000 4.4000 0.7200
v 18.8000 4.4000 0.7200
v 18.8000 5.2000 0.7200
v 17.2000 5.2000 0.7200
v 19.6000 1.8000 0.0000
v 21.2000 1.8000 0.0000
v 21.2000 2.6000 0.0000
v 19.6000 2.6000 0.0000
v 19.6000 1.8000 0.7200
v 21.2000 1.8000 0.7200
v 21.2000 2.6000 0.7200
v 19.6000 2.6000 0.7200
v 19.6000 2.6000 0.0000
v 21.2000 2.6000 0.0000
v 21.2000 3.4000 0.0000
v 19.6000 3.4000 0.0000
v 19.6000 2.6000 0.7200
v 21.2000 2.6000 0.7200
v 21.2000 3.4000 0.7200
v 19.6000 3.4000 0.7200
v 19.6000 3.6000 0.0000
v 21.2000 3.6000 0.0000
v 21.2000 4.4000 0.0000
v 19.6000 4.4000 0.0000
v 19.6000 3.6000 0.7200
v 21.2000 3.6000 0.7200
v 21.2000 4.4000 0.7200
v 19.6000 4.4000 0.7200
v 19.6000 4.4000 0.0000
v 21.2000 4.4000 0.0000
v 21.2000 5.2000 0.0000
v 19.6000 5.2000 0.0000
v 19.6000 4.4000 0.7200
v 21.2000 4.4000 0.7200
v 21.2000 5.2000 0.7200
v 19.6000 5.2000 0.7200
v 22.0000 1.8000 0.0000
v 23.6000 1.8000 0.0000
v 23.6000 2.6000 0.0000
v 22.0000 2.6000 0.0000
v 22.0000 1.8000 0.7200
v 23.6000 1.8000 0.7200
v 23.6000 2.6000 0.7200
v 22.0000 2.6000 0.7200
v 22.0000 2.6000 0.0000
v 23.6000 2.6000 0.0000
v 23.6000 3.4000 0.0000
v 22.0000 3.4000 0.0000
v 22.0000 2.6000 0.7200
v 23.6000 2.6000 0.7200
v 23.6000 3.4000 0.7200
v 22.0000 3.4000 0.7200
v 22.0000 3.6000 0.0000
v 23.6000 3.6000 0.0000
v 23.6000 4.4000 0.0000
v 22.0000 4.4000 0.0000
v 22.0000 3.6000 0.7200
v 23.6000 3.6000 0.7200
v 23.6000 4.4000 0.7200
v 22.0000 4.4000 0.7200
v 22.0000 4.4000 0.0000
v 23.6000 4.4000 0.0000
v 23.6000 5.2000 0.0000
v 22.0000 5.2000 0.0000
v 22.0000 4.4000 0.7200
v 23.6000 4.4000 0.7200
v 23.6000 5.2000 0.7200
v 22.0000 5.2000 0.7200
v 0.8000 1.8000 0.0000
v 2.2000 1.8000 0.0000
v 2.2000 2.3000 0.0000
v 0.8000 2.3000 0.0000
v 0.8000 1.8000 0.7200
v 2.2000 1.8000 0.7200
v 2.2000 2.3000 0.7200
v 0.8000 2.3000 0.7200
v 0.8000 2.9000 0.0000
v 2.2000 2.9000 0.0000
v 2.2000 3.4000 0.0000
v 0.8000 3.4000 0.0000
v 0.8000 2.9000 0.7200
v 2.2000 2.9000 0.7200
v 2.2000 3.4000 0.7200
v 0.8000 3.4000 0.7200
v 0.8000 4.0000 0.0000
v 2.2000 4.0000 0.0000
v 2.2000 4.5000 0.0000
v 0.8000 4.5000 0.0000
v 0.8000 4.0000 0.7200
v 2.2000 4.0000 0.7200
v 2.2000 4.5000 0.7200
v 0.8000 4.5000 0.7200
v 0.8000 5.1000 0.0000
v 2.2000 5.1000 0.0000
v 2.2000 5.6000 0.0000
v 0.8000 5.6000 0.0000
v 0.8000 5.1000 0.7200
v 2.2000 5.1000 0.7200
v 2.2000 5.6000 0.7200
v 0.8000 5.6000 0.7200
v 0.8000 6.2000 0.0000
v 2.2000 6.2000 0.0000
v 2.2000 6.7000 0.0000
v 0.8000 6.7000 0.0000
v 0.8000 6.2000 0.7200
v 2.2000 6.2000 0.7200
v 2.2000 6.7000 0.7200
v 0.8000 6.7000 0.7200
v 0.8000 7.3000 0.0000
v 2.2000 7.3000 0.0000
v 2.2000 7.8000 0.0000
v 0.8000 7.8000 0.0000
v 0.8000 7.3000 0.7200
v 2.2000 7.3000 0.7200
v 2.2000 7.8000 0.7200
v 0.8000 7.8000 0.7200
v 2.6000 1.8000 0.0000
v 4.0000 1.8000 0.0000
v 4.0000 2.3000 0.0000
v 2.6000 2.3000 0.0000
v 2.6000 1.8000 0.7200
v 4.0000 1.8000 0.7200
v 4.0000 2.3000 0.7200
v 2.6000 2.3000 0.7200
v 2.6000 2.9000 0.0000
v 4.0000 2.9000 0.0000
v 4.0000 3.4000 0.0000
v 2.6000 3.4000 0.0000
v 2.6000 2.9000 0.7200
v 4.0000 2.9000 0.7200
v 4.0000 3.4000 0.7200
v 2.6000 3.4000 0.7200
v 2.6000 4.0000 0.0000
v 4.0000 4.0000 0.0000
v 4.0000 4.5000 0.0000
v 2.6000 4.5000 0.0000
v 2.6000 4.0000 0.7200
v 4.0000 4.0000 0.7200
v 4.0000 4.5000 0.7200
v 2.6000 4.5000 0.7200
v 2.6000 5.1000 0.0000
v 4.0000 5.1000 0.0000
v 4.0000 5.6000 0.0000
v 2.6000 5.6000 0.0000
v 2.6000 5.1000 0.7200
v 4.0000 5.1000 0.7200
v 4.0000 5.6000 0.7200
v 2.6000 5.6000 0.7200
v 2.6000 6.2000 0.0000
v 4.0000 6.2000 0.0000
v 4.0000 6.7000 0.0000
v 2.6000 6.7000 0.0000
v 2.6000 6.2000 0.7200
v 4.0000 6.2000 0.7200
v 4.0000 6.7000 0.7200
v 2.6000 6.7000 0.7200
v 2.6000 7.3000 0.0000
v 4.0000 7.3000 0.0000
v 4.0000 7.8000 0.0000
v 2.6000 7.8000 0.0000
v 2.6000 7.3000 0.7200
v 4.0000 7.3000 0.7200
v 4.0000 7.8000 0.7200
v 2.6000 7.8000 0.7200
v 4.4000 1.8000 0.0000
v 5.8000 1.8000 0.0000
v 5.8000 2.3000 0.0000
v 4.4000 2.3000 0.0000
v 4.4000 1.8000 0.7200
v 5.8000 1.8000 0.7200
v 5.8000 2.3000 0.7200
v 4.4000 2.3000 0.7200
v 4.4000 2.9000 0.0000
v 5.8000 2.9000 0.0000
v 5.8000 3.4000 0.0000
v 4.4000 3.4000 0.0000
v 4.4000 2.9000 0.7200
v 5.8000 2.9000 0.7200
v 5.8000 3.4000 0.7200
v 4.4000 3.4000 0.7200
v 4.4000 4.0000 0.0000
v 5.8000 4.0000 0.0000
v 5.8000 4.5000 0.0000
v 4.4000 4.5000 0.0000
v 4.4000 4.0000 0.7200
v 5.8000 4.0000 0.7200
v 5.8000 4.5000 0.7200
v 4.4000 4.5000 0.7200
v 4.4000 5.1000 0.0000
v 5.8000 5.1000 0.0000
v 5.8000 5.6000 0.0000
v 4.4000 5.6000 0.0000
v 4.4000 5.1000 0.7200
v 5.8000 5.1000 0.7200
v 5.8000 5.6000 0.7200
v 4.4000 5.6000 0.7200
v 4.4000 6.2000 0.0000
v 5.8000 6.2000 0.0000
v 5.8000 6.7000 0.0000
v 4.4000 6.7000 0.0000
v 4.4000 6.2000 0.7200
v 5.8000 6.2000 0.7200
v 5.8000 6.7000 0.7200
v 4.4000 6.7000 0.7200
v 4.4000 7.3000 0.0000
v 5.8000 7.3000 0.0000
v 5.8000 7.8000 0.0000
v 4.4000 7.8000 0.0000
v 4.4000 7.3000 0.7200
v 5.8000 7.3000 0.7200
v 5.8000 7.8000 0.7200
v 4.4000 7.8000 0.7200
v 8.0000 1.5000 0.0000
v 9.6000 1.5000 0.0000
v 9.6000 2.4000 0.0000
v 8.0000 2.4000 0.0000
v 8.0000 1.5000 0.7200
v 9.6000 1.5000 0.7200
v 9.6000 2.4000 0.7200
v 8.0000 2.4000 0.7200

usemtl SK_Office_Carpet
f 1 2 3 4
f 5 8 7 6
f 1 5 6 2
f 3 7 8 4
f 1 4 8 5
f 2 6 7 3

usemtl SK_Lounge_Wood_Floor
f 9 10 11 12
f 13 16 15 14
f 9 13 14 10
f 11 15 16 12
f 9 12 16 13
f 10 14 15 11

usemtl SK_Wall_White
f 17 18 19 20
f 21 24 23 22
f 17 21 22 18
f 19 23 24 20
f 17 20 24 21
f 18 22 23 19
f 25 26 27 28
f 29 32 31 30
f 25 29 30 26
f 27 31 32 28
f 25 28 32 29
f 26 30 31 27
f 33 34 35 36
f 37 40 39 38
f 33 37 38 34
f 35 39 40 36
f 33 36 40 37
f 34 38 39 35
f 41 42 43 44
f 45 48 47 46
f 41 45 46 42
f 43 47 48 44
f 41 44 48 45
f 42 46 47 43
f 49 50 51 52
f 53 56 55 54
f 49 53 54 50
f 51 55 56 52
f 49 52 56 53
f 50 54 55 51
f 57 58 59 60
f 61 64 63 62
f 57 61 62 58
f 59 63 64 60
f 57 60 64 61
f 58 62 63 59

usemtl SK_Glass_Partition
f 65 66 67 68
f 69 72 71 70
f 65 69 70 66
f 67 71 72 68
f 65 68 72 69
f 66 70 71 67

usemtl SK_Wall_White
f 73 74 75 76
f 77 80 79 78
f 73 77 78 74
f 75 79 80 76
f 73 76 80 77
f 74 78 79 75
f 81 82 83 84
f 85 88 87 86
f 81 85 86 82
f 83 87 88 84
f 81 84 88 85
f 82 86 87 83
f 89 90 91 92
f 93 96 95 94
f 89 93 94 90
f 91 95 96 92
f 89 92 96 93
f 90 94 95 91

usemtl SK_Frame_Dark
f 97 98 99 100
f 101 104 103 102
f 97 101 102 98
f 99 103 104 100
f 97 100 104 101
f 98 102 103 99

usemtl SK_Glass_Partition
f 105 106 107 108
f 109 112 111 110
f 105 109 110 106
f 107 111 112 108
f 105 108 112 109
f 106 110 111 107

usemtl SK_Frame_Dark
f 113 114 115 116
f 117 120 119 118
f 113 117 118 114
f 115 119 120 116
f 113 116 120 117
f 114 118 119 115

usemtl SK_Wall_White
f 121 122 123 124
f 125 128 127 126
f 121 125 126 122
f 123 127 128 124
f 121 124 128 125
f 122 126 127 123

usemtl SK_Frame_Dark
f 129 130 131 132
f 133 136 135 134
f 129 133 134 130
f 131 135 136 132
f 129 132 136 133
f 130 134 135 131

usemtl SK_Glass_Partition
f 137 138 139 140
f 141 144 143 142
f 137 141 142 138
f 139 143 144 140
f 137 140 144 141
f 138 142 143 139

usemtl SK_Frame_Dark
f 145 146 147 148
f 149 152 151 150
f 145 149 150 146
f 147 151 152 148
f 145 148 152 149
f 146 150 151 147

usemtl SK_Wall_White
f 153 154 155 156
f 157 160 159 158
f 153 157 158 154
f 155 159 160 156
f 153 156 160 157
f 154 158 159 155
f 161 162 163 164
f 165 168 167 166
f 161 165 166 162
f 163 167 168 164
f 161 164 168 165
f 162 166 167 163
f 169 170 171 172
f 173 176 175 174
f 169 173 174 170
f 171 175 176 172
f 169 172 176 173
f 170 174 175 171
f 177 178 179 180
f 181 184 183 182
f 177 181 182 178
f 179 183 184 180
f 177 180 184 181
f 178 182 183 179
f 185 186 187 188
f 189 192 191 190
f 185 189 190 186
f 187 191 192 188
f 185 188 192 189
f 186 190 191 187
f 193 194 195 196
f 197 200 199 198
f 193 197 198 194
f 195 199 200 196
f 193 196 200 197
f 194 198 199 195
f 201 202 203 204
f 205 208 207 206
f 201 205 206 202
f 203 207 208 204
f 201 204 208 205
f 202 206 207 203
f 209 210 211 212
f 213 216 215 214
f 209 213 214 210
f 211 215 216 212
f 209 212 216 213
f 210 214 215 211
f 217 218 219 220
f 221 224 223 222
f 217 221 222 218
f 219 223 224 220
f 217 220 224 221
f 218 222 223 219
f 225 226 227 228
f 229 232 231 230
f 225 229 230 226
f 227 231 232 228
f 225 228 232 229
f 226 230 231 227
f 233 234 235 236
f 237 240 239 238
f 233 237 238 234
f 235 239 240 236
f 233 236 240 237
f 234 238 239 235
f 241 242 243 244
f 245 248 247 246
f 241 245 246 242
f 243 247 248 244
f 241 244 248 245
f 242 246 247 243
f 249 250 251 252
f 253 256 255 254
f 249 253 254 250
f 251 255 256 252
f 249 252 256 253
f 250 254 255 251

usemtl SK_Desk_Oak_White
f 257 258 259 260
f 261 264 263 262
f 257 261 262 258
f 259 263 264 260
f 257 260 264 261
f 258 262 263 259
f 265 266 267 268
f 269 272 271 270
f 265 269 270 266
f 267 271 272 268
f 265 268 272 269
f 266 270 271 267

usemtl SK_Lounge_Wood_Floor
f 273 274 275 276
f 277 280 279 278
f 273 277 278 274
f 275 279 280 276
f 273 276 280 277
f 274 278 279 275
f 281 282 283 284
f 285 288 287 286
f 281 285 286 282
f 283 287 288 284
f 281 284 288 285
f 282 286 287 283

usemtl SK_Desk_Oak_White
f 289 290 291 292
f 293 296 295 294
f 289 293 294 290
f 291 295 296 292
f 289 292 296 293
f 290 294 295 291
f 297 298 299 300
f 301 304 303 302
f 297 301 302 298
f 299 303 304 300
f 297 300 304 301
f 298 302 303 299
f 305 306 307 308
f 309 312 311 310
f 305 309 310 306
f 307 311 312 308
f 305 308 312 309
f 306 310 311 307
f 313 314 315 316
f 317 320 319 318
f 313 317 318 314
f 315 319 320 316
f 313 316 320 317
f 314 318 319 315
f 321 322 323 324
f 325 328 327 326
f 321 325 326 322
f 323 327 328 324
f 321 324 328 325
f 322 326 327 323
f 329 330 331 332
f 333 336 335 334
f 329 333 334 330
f 331 335 336 332
f 329 332 336 333
f 330 334 335 331
f 337 338 339 340
f 341 344 343 342
f 337 341 342 338
f 339 343 344 340
f 337 340 344 341
f 338 342 343 339
f 345 346 347 348
f 349 352 351 350
f 345 349 350 346
f 347 351 352 348
f 345 348 352 349
f 346 350 351 347
f 353 354 355 356
f 357 360 359 358
f 353 357 358 354
f 355 359 360 356
f 353 356 360 357
f 354 358 359 355
f 361 362 363 364
f 365 368 367 366
f 361 365 366 362
f 363 367 368 364
f 361 364 368 365
f 362 366 367 363
f 369 370 371 372
f 373 376 375 374
f 369 373 374 370
f 371 375 376 372
f 369 372 376 373
f 370 374 375 371
f 377 378 379 380
f 381 384 383 382
f 377 381 382 378
f 379 383 384 380
f 377 380 384 381
f 378 382 383 379
f 385 386 387 388
f 389 392 391 390
f 385 389 390 386
f 387 391 392 388
f 385 388 392 389
f 386 390 391 387
f 393 394 395 396
f 397 400 399 398
f 393 397 398 394
f 395 399 400 396
f 393 396 400 397
f 394 398 399 395
f 401 402 403 404
f 405 408 407 406
f 401 405 406 402
f 403 407 408 404
f 401 404 408 405
f 402 406 407 403
f 409 410 411 412
f 413 416 415 414
f 409 413 414 410
f 411 415 416 412
f 409 412 416 413
f 410 414 415 411
f 417 418 419 420
f 421 424 423 422
f 417 421 422 418
f 419 423 424 420
f 417 420 424 421
f 418 422 423 419
f 425 426 427 428
f 429 432 431 430
f 425 429 430 426
f 427 431 432 428
f 425 428 432 429
f 426 430 431 427
f 433 434 435 436
f 437 440 439 438
f 433 437 438 434
f 435 439 440 436
f 433 436 440 437
f 434 438 439 435
f 441 442 443 444
f 445 448 447 446
f 441 445 446 442
f 443 447 448 444
f 441 444 448 445
f 442 446 447 443
f 449 450 451 452
f 453 456 455 454
f 449 453 454 450
f 451 455 456 452
f 449 452 456 453
f 450 454 455 451
f 457 458 459 460
f 461 464 463 462
f 457 461 462 458
f 459 463 464 460
f 457 460 464 461
f 458 462 463 459
f 465 466 467 468
f 469 472 471 470
f 465 469 470 466
f 467 471 472 468
f 465 468 472 469
f 466 470 471 467
f 473 474 475 476
f 477 480 479 478
f 473 477 478 474
f 475 479 480 476
f 473 476 480 477
f 474 478 479 475
f 481 482 483 484
f 485 488 487 486
f 481 485 486 482
f 483 487 488 484
f 481 484 488 485
f 482 486 487 483
f 489 490 491 492
f 493 496 495 494
f 489 493 494 490
f 491 495 496 492
f 489 492 496 493
f 490 494 495 491
f 497 498 499 500
f 501 504 503 502
f 497 501 502 498
f 499 503 504 500
f 497 500 504 501
f 498 502 503 499
f 505 506 507 508
f 509 512 511 510
f 505 509 510 506
f 507 511 512 508
f 505 508 512 509
f 506 510 511 507
f 513 514 515 516
f 517 520 519 518
f 513 517 518 514
f 515 519 520 516
f 513 516 520 517
f 514 518 519 515
f 521 522 523 524
f 525 528 527 526
f 521 525 526 522
f 523 527 528 524
f 521 524 528 525
f 522 526 527 523
f 529 530 531 532
f 533 536 535 534
f 529 533 534 530
f 531 535 536 532
f 529 532 536 533
f 530 534 535 531
f 537 538 539 540
f 541 544 543 542
f 537 541 542 538
f 539 543 544 540
f 537 540 544 541
f 538 542 543 539
f 545 546 547 548
f 549 552 551 550
f 545 549 550 546
f 547 551 552 548
f 545 548 552 549
f 546 550 551 547
f 553 554 555 556
f 557 560 559 558
f 553 557 558 554
f 555 559 560 556
f 553 556 560 557
f 554 558 559 555

usemtl SK_Lounge_Wood_Floor
f 561 562 563 564
f 565 568 567 566
f 561 565 566 562
f 563 567 568 564
f 561 564 568 565
f 562 566 567 563
